<svg width="30" height="28" viewBox="0 0 30 28" fill="none" xmlns="http://www.w3.org/2000/svg">
<path d="M27.0995 0.929626C25.5002 0.929626 24.199 2.23076 24.199 3.8302C24.199 4.71017 24.5934 5.49925 25.214 6.03164L19.8592 14.9906C19.5561 14.8828 19.2302 14.8237 18.8906 14.8237C18.6133 14.8237 18.3454 14.8637 18.0913 14.9366L13.5154 10.0291C13.6914 9.65521 13.7903 9.23819 13.7903 8.79833C13.7903 7.19895 12.4891 5.89775 10.8897 5.89775C9.29031 5.89775 7.98911 7.19889 7.98911 8.79833C7.98911 9.6204 8.33347 10.3631 8.88478 10.8914L3.31173 21.2989C3.17726 21.2797 3.04009 21.2692 2.90046 21.2692C1.30126 21.2692 0 22.5704 0 24.1698C0 25.7692 1.30125 27.0704 2.90058 27.0704C4.4999 27.0704 5.80116 25.7693 5.80116 24.1698C5.80116 23.369 5.4749 22.6431 4.9485 22.1177L10.5392 11.6769C10.6542 11.6908 10.771 11.6989 10.8897 11.6989C11.3822 11.6989 11.8464 11.5752 12.253 11.3577L16.5694 15.9869C16.2058 16.4715 15.99 17.0731 15.99 17.7243C15.99 19.3237 17.2912 20.6249 18.8906 20.6249C20.49 20.6249 21.7912 19.3237 21.7912 17.7243C21.7912 17.1348 21.614 16.5861 21.3106 16.1278L26.9304 6.72557C26.9864 6.72879 27.0428 6.7309 27.0996 6.7309C28.6989 6.7309 30.0002 5.42976 30.0002 3.83032C30.0002 2.23088 28.6989 0.929626 27.0995 0.929626ZM2.90058 25.2411C2.30983 25.2411 1.8293 24.7606 1.8293 24.1698C1.8293 23.5791 2.30989 23.0985 2.90058 23.0985C3.49126 23.0985 3.97185 23.5791 3.97185 24.1698C3.97185 24.7606 3.49132 25.2411 2.90058 25.2411ZM10.8897 9.8696C10.2989 9.8696 9.81842 9.38907 9.81842 8.79833C9.81842 8.20758 10.299 7.72706 10.8897 7.72706C11.4804 7.72706 11.961 8.20758 11.961 8.79833C11.961 9.38907 11.4804 9.8696 10.8897 9.8696ZM18.8906 18.7956C18.2998 18.7956 17.8193 18.315 17.8193 17.7242C17.8193 17.1335 18.2999 16.653 18.8906 16.653C19.4813 16.653 19.9619 17.1335 19.9619 17.7242C19.9619 18.315 19.4812 18.7956 18.8906 18.7956ZM27.0995 4.90154C26.5088 4.90154 26.0283 4.42101 26.0283 3.83026C26.0283 3.23952 26.5089 2.75899 27.0995 2.75899C27.6902 2.75899 28.1708 3.23946 28.1708 3.8302C28.1708 4.42095 27.6902 4.90154 27.0995 4.90154Z" fill="#F48422"/>
</svg>
