<svg width="28" height="26" viewBox="0 0 28 26" fill="none" xmlns="http://www.w3.org/2000/svg">
<path d="M2.85751 15.4574C1.37789 15.2108 0.25 13.9246 0.25 12.375V11.125C0.25 10.7798 0.529822 10.5 0.875 10.5C1.22018 10.5 1.5 10.7798 1.5 11.125V12.375C1.5 13.1944 2.0256 13.891 2.75805 14.1461C2.75268 13.9749 2.75 13.8012 2.75 13.625C2.75 9.22888 7.26391 5.5 14.625 5.5C16.3551 5.5 17.8866 5.66608 19.2201 6.00082C19.8003 4.24247 21.4566 3 23.375 3C23.7202 3 24 3.27982 24 3.625V8.79385C24.422 9.30535 24.7705 9.87459 25.0453 10.5H27.125C27.4702 10.5 27.75 10.7798 27.75 11.125V16.125C27.75 16.4702 27.4702 16.75 27.125 16.75H25.1936C24.9786 17.9362 24.1509 19.078 22.75 20.1828V24.875C22.75 25.2202 22.4702 25.5 22.125 25.5H18.375C18.0298 25.5 17.75 25.2202 17.75 24.875V23H11.5V24.875C11.5 25.2202 11.2202 25.5 10.875 25.5H7.125C6.77982 25.5 6.5 25.2202 6.5 24.875V21.4999C4.42121 20.3209 3.20878 18.2881 2.85751 15.4574ZM20.2898 6.87453C20.2295 7.24925 19.852 7.48425 19.4892 7.37281C18.1418 6.95895 16.52 6.75 14.625 6.75C7.90714 6.75 4 9.97764 4 13.625C4 17.1563 5.1383 19.4329 7.40451 20.566C7.61625 20.6719 7.75 20.8883 7.75 21.125V24.25H10.25V22.375C10.25 22.0298 10.5298 21.75 10.875 21.75H18.375C18.7202 21.75 19 22.0298 19 22.375V24.25H21.5V19.875C21.5 19.6783 21.5926 19.493 21.75 19.375C23.2747 18.2315 24 17.1435 24 16.125C24 15.7798 24.2798 15.5 24.625 15.5H26.5V11.75H24.625C24.3645 11.75 24.1313 11.5884 24.0398 11.3445C23.7681 10.6199 23.3907 9.98576 22.9067 9.43823C22.8057 9.32399 22.75 9.17677 22.75 9.02429V4.31277C21.494 4.56845 20.4978 5.57975 20.2898 6.87453ZM11.5 3.625C11.5 3.97018 11.2202 4.25 10.875 4.25C10.5298 4.25 10.25 3.97018 10.25 3.625C10.25 1.89911 11.6491 0.5 13.375 0.5H13.406C15.132 0.5 16.5312 1.8992 16.5312 3.62519C16.5312 3.97037 16.2513 4.25019 15.9062 4.25019C15.561 4.25019 15.2812 3.97037 15.2812 3.62519C15.2812 2.58955 14.4416 1.75 13.406 1.75H13.375C12.3395 1.75 11.5 2.58947 11.5 3.625ZM20.25 13C19.5596 13 19 12.4404 19 11.75C19 11.0596 19.5596 10.5 20.25 10.5C20.9404 10.5 21.5 11.0596 21.5 11.75C21.5 12.4404 20.9404 13 20.25 13Z" fill="#F48422"/>
</svg>
